<?xml version="1.0" encoding="iso-8859-1"?>
<!-- Generator: Adobe Illustrator 16.0.0, SVG Export Plug-In . SVG Version: 6.00 Build 0)  -->
<!DOCTYPE svg PUBLIC "-//W3C//DTD SVG 1.1//EN" "http://www.w3.org/Graphics/SVG/1.1/DTD/svg11.dtd">
<svg version="1.1" id="Capa_1" xmlns="http://www.w3.org/2000/svg" xmlns:xlink="http://www.w3.org/1999/xlink" x="0px" y="0px"
	 width="69.071px" height="69.07px" viewBox="0 0 69.071 69.07" style="enable-background:new 0 0 69.071 69.07;"
	 xml:space="preserve">
<g>
	<g>
		<path d="M44.204,13.844c-4.102,3.625-0.297,12.239,5.465,14.972c4.861,2.306,12.179,7.367,13.545,13.721
			c-0.772-3.978,4.161-18.236-0.772-24.295C57.508,12.181,48.487,10.058,44.204,13.844z"/>
		<path d="M55.134,35.886c2.792,5.229-3.506,8.791-4.519,14.971c-0.831,5.103,4.005,11.12,9.686,8.022
			c3.269-1.783,4.361-5.762,3.387-10.748C62.735,43.233,57.926,37.608,55.134,35.886z"/>
		<path d="M47.112,3.386c-0.593-2.614-3.625-3.861-5.288-3.221c-1.662,0.64-2.915,2.628-2.557,5.122
			c0.355,2.495,4.313,4.219,5.055,6.526C46.927,9.097,47.709,6,47.112,3.386z"/>
		<path d="M54.671,4.378c0.148-1.879-1.627-3.348-2.874-3.265c-1.253,0.082-2.507,1.154-2.79,2.904s2.017,3.735,2.027,5.438
			C53.353,8.174,54.525,6.259,54.671,4.378z"/>
		<path d="M60.517,6.498c0.135-1.672-1.445-2.98-2.559-2.908c-1.113,0.073-2.229,1.025-2.482,2.583
			c-0.248,1.556,1.796,3.322,1.805,4.838C59.345,9.873,60.387,8.167,60.517,6.498z"/>
		<path d="M61.239,13.771c1.966-0.334,3.272-1.404,3.846-2.702c0.572-1.299-0.322-2.787-1.232-3.04
			c-0.907-0.252-2.066,0.196-2.703,1.372C60.51,10.576,61.654,12.554,61.239,13.771z"/>
		<path d="M66.97,12.949c-0.762-0.346-1.838-0.112-2.557,0.827c-0.716,0.94,0.007,2.832-0.522,3.838
			c1.766-0.021,3.059-0.778,3.738-1.836C68.31,14.72,67.73,13.295,66.97,12.949z"/>
		<path d="M6.626,27.583c-4.93,6.06,0,20.317-0.772,24.298c1.366-6.355,8.684-11.419,13.545-13.723
			c5.762-2.733,9.566-11.349,5.465-14.973C20.583,19.4,11.56,21.524,6.626,27.583z"/>
		<path d="M13.936,45.229c-2.792,1.722-7.602,7.35-8.557,12.244c-0.974,4.986,0.119,8.965,3.386,10.749
			c5.681,3.098,10.517-2.92,9.685-8.022C17.442,54.021,11.144,50.457,13.936,45.229z"/>
		<path d="M27.242,9.509c-1.663-0.64-4.692,0.607-5.289,3.221c-0.595,2.614,0.187,5.711,2.792,8.428
			c0.738-2.31,4.697-4.032,5.055-6.526C30.158,12.137,28.908,10.151,27.242,9.509z"/>
		<path d="M18.035,18.798c0.012-1.703,2.31-3.688,2.028-5.438c-0.283-1.75-1.538-2.822-2.79-2.904
			c-1.249-0.081-3.022,1.388-2.875,3.265C14.545,15.603,15.717,17.518,18.035,18.798z"/>
		<path d="M11.787,20.354c0.011-1.516,2.055-3.282,1.803-4.838c-0.251-1.558-1.37-2.51-2.481-2.583
			c-1.114-0.072-2.691,1.236-2.56,2.908C8.683,17.511,9.724,19.216,11.787,20.354z"/>
		<path d="M7.832,23.114c-0.415-1.217,0.725-3.197,0.089-4.37c-0.635-1.173-1.796-1.624-2.704-1.372
			c-0.911,0.252-1.804,1.743-1.231,3.04C4.557,21.71,5.865,22.78,7.832,23.114z"/>
		<path d="M4.655,23.119c-0.72-0.938-1.794-1.172-2.556-0.827c-0.761,0.347-1.337,1.771-0.658,2.828
			c0.68,1.059,1.971,1.813,3.74,1.836C4.648,25.951,5.373,24.061,4.655,23.119z"/>
	</g>
</g>
<g>
</g>
<g>
</g>
<g>
</g>
<g>
</g>
<g>
</g>
<g>
</g>
<g>
</g>
<g>
</g>
<g>
</g>
<g>
</g>
<g>
</g>
<g>
</g>
<g>
</g>
<g>
</g>
<g>
</g>
</svg>
